<svg width="1710" height="512" viewBox="0 0 1710 512" fill="none" xmlns="http://www.w3.org/2000/svg">
<rect width="512" height="512" rx="128" fill="#1A041A"/>
<path d="M255.2 140.16C321.12 140.16 372 190.08 372 256C372 321.92 321.12 371.84 255.2 371.84C189.28 371.84 138.72 321.92 138.72 256C138.72 190.08 189.28 140.16 255.2 140.16ZM255.2 183.68C214.88 183.68 184.8 214.08 184.8 256C184.8 297.92 214.88 328.32 255.2 328.32C295.52 328.32 325.6 297.92 325.6 256C325.6 214.08 295.52 183.68 255.2 183.68Z" fill="#D72BE4"/>
<circle cx="164" cy="256" r="40" fill="#D72BE4" stroke="#1A041A" stroke-width="12"/>
<circle cx="342" cy="256" r="40" fill="#D72BE4" stroke="#1A041A" stroke-width="12"/>
<circle cx="254" cy="168" r="40" fill="#D72BE4" stroke="#1A041A" stroke-width="12"/>
<circle cx="254" cy="344" r="40" fill="#D72BE4" stroke="#1A041A" stroke-width="12"/>
<path d="M780.32 387.32C705.08 387.32 650 331.16 650 257C650 182.84 705.08 126.68 780.32 126.68C840.44 126.68 887.24 163.76 902 217.4H846.92C835.04 191.48 810.92 175.64 779.96 175.64C733.52 175.64 701.84 209.84 701.84 257C701.84 304.16 733.52 338.36 779.96 338.36C810.92 338.36 835.04 322.52 846.92 296.6H902C887.24 350.24 840.44 387.32 780.32 387.32ZM947.751 93.56C966.471 93.56 979.791 106.16 979.791 123.8C979.791 141.44 966.471 154.4 947.751 154.4C929.751 154.4 915.711 141.44 915.711 123.8C915.711 106.16 929.751 93.56 947.751 93.56ZM921.831 383V185H973.311V383H921.831ZM1113.64 180.68C1118.32 180.68 1121.92 181.04 1125.16 181.4V234.32C1121.2 233.96 1118.32 233.6 1112.56 233.6C1079.8 233.6 1051.72 248 1051.72 294.8V383H1000.24V185H1051.72V219.56C1063.96 193.64 1085.56 180.68 1113.64 180.68ZM1338.93 383H1273.05L1192.05 296.6V383H1140.57V105.8H1192.05V267.44L1267.29 185H1332.81L1242.45 279.32L1338.93 383ZM1427.97 180.68C1493.49 180.68 1534.17 232.16 1529.13 297.32H1377.21C1380.45 329 1402.05 344.84 1428.69 344.84C1448.49 344.84 1465.77 335.84 1472.61 320H1525.89C1511.13 366.8 1471.53 387.32 1429.05 387.32C1367.13 387.32 1324.65 343.4 1324.65 284.36C1324.65 224.96 1367.49 180.68 1427.97 180.68ZM1427.61 223.16C1402.41 223.16 1386.21 238.28 1379.73 259.52H1474.41C1468.65 237.92 1452.45 223.16 1427.61 223.16ZM1550.14 383V105.8H1601.62V383H1550.14Z" fill="#1A041A"/>
<path d="M1676.22 52.928C1690.52 52.928 1702.14 64.544 1702.14 78.848C1702.14 93.152 1690.52 104.768 1676.22 104.768C1661.91 104.768 1650.3 93.152 1650.3 78.848C1650.3 64.544 1661.91 52.928 1676.22 52.928ZM1676.22 99.488C1687.54 99.488 1696.76 90.272 1696.76 78.848C1696.76 67.424 1687.54 58.208 1676.22 58.208C1664.89 58.208 1655.58 67.424 1655.58 78.848C1655.58 90.272 1664.89 99.488 1676.22 99.488ZM1687.35 74.624C1687.35 78.56 1685.14 81.152 1681.69 82.208L1688.6 91.424H1680.63L1674.39 82.784H1672.76V91.424H1666.14V66.464H1679C1684.38 66.464 1687.35 69.728 1687.35 74.624ZM1680.44 74.912C1680.44 73.088 1679.67 72.128 1677.27 72.128H1672.76V77.792H1677.27C1679.67 77.792 1680.44 76.736 1680.44 74.912Z" fill="#1A041A"/>
</svg>
